<svg width="1600" height="900" viewBox="0 0 1600 900" fill="none" xmlns="http://www.w3.org/2000/svg">
  <defs>
    <linearGradient id="heroBg" x1="0" y1="0" x2="1600" y2="900" gradientUnits="userSpaceOnUse">
      <stop stop-color="#09090B"/>
      <stop offset="1" stop-color="#111114"/>
    </linearGradient>
    <radialGradient id="heroGlowA" cx="0" cy="0" r="1" gradientUnits="userSpaceOnUse" gradientTransform="translate(1170 260) rotate(90) scale(240)">
      <stop stop-color="#CCFF00" stop-opacity="0.22"/>
      <stop offset="1" stop-color="#CCFF00" stop-opacity="0"/>
    </radialGradient>
    <radialGradient id="heroGlowB" cx="0" cy="0" r="1" gradientUnits="userSpaceOnUse" gradientTransform="translate(340 720) rotate(90) scale(260)">
      <stop stop-color="#CCFF00" stop-opacity="0.12"/>
      <stop offset="1" stop-color="#CCFF00" stop-opacity="0"/>
    </radialGradient>
  </defs>

  <rect width="1600" height="900" fill="url(#heroBg)"/>
  <g opacity="0.12" stroke="#CCFF00">
    <path d="M0 120H1600M0 240H1600M0 360H1600M0 480H1600M0 600H1600M0 720H1600M0 840H1600"/>
    <path d="M160 0V900M320 0V900M480 0V900M640 0V900M800 0V900M960 0V900M1120 0V900M1280 0V900M1440 0V900"/>
  </g>

  <circle cx="1170" cy="260" r="240" fill="url(#heroGlowA)"/>
  <circle cx="340" cy="720" r="260" fill="url(#heroGlowB)"/>

  <g transform="translate(118 160)">
    <text x="0" y="0" fill="#CCFF00" font-family="Outfit, Arial, sans-serif" font-size="24" font-weight="700" letter-spacing="7">BRAND GRAPHIC</text>
    <text x="0" y="116" fill="#FAFAFA" font-family="Outfit, Arial, sans-serif" font-size="122" font-weight="900">Fisco</text>
    <text x="292" y="116" fill="#CCFF00" font-family="Outfit, Arial, sans-serif" font-size="122" font-weight="900">.</text>
    <text x="354" y="116" fill="#A1A1AA" font-family="Outfit, Arial, sans-serif" font-size="122" font-weight="700">Facile</text>
    <text x="0" y="194" fill="#A1A1AA" font-family="Manrope, Arial, sans-serif" font-size="34" font-weight="500">Grafica hero piu ordinata, meno deformata e piu adatta a landing, PDF e slide.</text>

    <g transform="translate(0 282)">
      <rect x="0" y="0" width="368" height="118" rx="28" fill="#17171B" stroke="#27272A" stroke-width="2"/>
      <rect x="392" y="0" width="286" height="118" rx="28" fill="#17171B" stroke="#27272A" stroke-width="2"/>
      <rect x="0" y="146" width="678" height="118" rx="28" fill="#0F0F12" stroke="#27272A" stroke-width="2"/>
      <text x="32" y="48" fill="#CCFF00" font-family="Outfit, Arial, sans-serif" font-size="18" font-weight="700" letter-spacing="4">LOOK PULITO</text>
      <text x="32" y="82" fill="#FAFAFA" font-family="Manrope, Arial, sans-serif" font-size="30" font-weight="700">Mockup frontali e leggibili</text>
      <text x="424" y="48" fill="#CCFF00" font-family="Outfit, Arial, sans-serif" font-size="18" font-weight="700" letter-spacing="4">BRAND</text>
      <text x="424" y="82" fill="#FAFAFA" font-family="Manrope, Arial, sans-serif" font-size="30" font-weight="700">Nero + lime</text>
      <text x="32" y="194" fill="#CCFF00" font-family="Outfit, Arial, sans-serif" font-size="18" font-weight="700" letter-spacing="4">UTILIZZO</text>
      <text x="32" y="230" fill="#FAFAFA" font-family="Manrope, Arial, sans-serif" font-size="30" font-weight="700">Hero background per presentazioni, schede prodotto e cover manuali.</text>
    </g>
  </g>

  <g transform="translate(980 128)">
    <ellipse cx="214" cy="182" rx="246" ry="88" transform="rotate(-14 214 182)" stroke="#CCFF00" stroke-opacity="0.30" stroke-width="3"/>
    <ellipse cx="214" cy="182" rx="184" ry="66" transform="rotate(-14 214 182)" stroke="#CCFF00" stroke-opacity="0.16" stroke-width="3"/>
    <circle cx="214" cy="182" r="82" fill="#0B0B0D" stroke="#CCFF00" stroke-width="4"/>
    <ellipse cx="214" cy="182" rx="42" ry="82" stroke="#CCFF00" stroke-opacity="0.48" stroke-width="3"/>
    <ellipse cx="214" cy="182" rx="82" ry="44" stroke="#CCFF00" stroke-opacity="0.42" stroke-width="3"/>
    <ellipse cx="214" cy="182" rx="82" ry="16" stroke="#CCFF00" stroke-opacity="0.22" stroke-width="3"/>
    <text x="214" y="210" text-anchor="middle" fill="#CCFF00" font-family="Outfit, Arial, sans-serif" font-size="96" font-weight="900">€</text>

    <rect x="20" y="348" width="376" height="220" rx="30" fill="#151518" stroke="#27272A" stroke-width="2"/>
    <rect x="68" y="388" width="280" height="18" rx="9" fill="#27272A"/>
    <rect x="68" y="428" width="210" height="18" rx="9" fill="#27272A"/>
    <rect x="68" y="490" width="280" height="22" rx="11" fill="#CCFF00" fill-opacity="0.16" stroke="#CCFF00" stroke-opacity="0.24"/>
    <rect x="68" y="534" width="156" height="22" rx="11" fill="#CCFF00" fill-opacity="0.10" stroke="#CCFF00" stroke-opacity="0.20"/>
  </g>
</svg>
